<!-- <svg id="sw-js-blob-svg" viewBox="0 0 100 100" xmlns="http://www.w3.org/2000/svg">
    <defs>
        <linearGradient id="sw-gradient" x1="0" x2="1" y1="1" y2="0">
            <stop id="stop1" stop-color="rgba(255, 247.084, 243.337, 0.86)" offset="0%"></stop>
            <stop id="stop2" stop-color="rgba(255, 255, 255, 1)" offset="100%"></stop>
        </linearGradient>
    </defs>
    <path fill="url(#sw-gradient)" d="M19.6,-31.9C25.4,-26.7,30.3,-21.4,33.7,-15.1C37,-8.8,38.9,-1.4,39,6.4C39.1,14.2,37.4,22.6,32.6,28.4C27.8,34.2,19.9,37.4,12.1,38.4C4.3,39.5,-3.3,38.4,-10.3,36C-17.3,33.5,-23.6,29.7,-29.8,24.7C-36.1,19.6,-42.2,13.3,-43.3,6.2C-44.4,-0.9,-40.4,-8.8,-35.9,-15.5C-31.4,-22.1,-26.3,-27.6,-20.3,-32.8C-14.2,-37.9,-7.1,-42.7,-0.1,-42.5C6.8,-42.3,13.7,-37.1,19.6,-31.9Z" width="100%" height="100%" transform="translate(50 50)" stroke-width="0" style="transition: 0.3s;" stroke="url(#sw-gradient)"></path>
</svg> -->

<!-- <svg id="sw-js-blob-svg" viewBox="0 0 100 100" xmlns="http://www.w3.org/2000/svg">
    <defs>
        <linearGradient id="sw-gradient" x1="0" x2="1" y1="1" y2="0">
            <stop id="stop1" stop-color="rgba(214.843, 117.598, 71.574, 0.86)" offset="0%"></stop>
            <stop id="stop2" stop-color="rgba(255, 127.698, 27.501, 1)" offset="100%"></stop>
        </linearGradient>
    </defs>
    <path fill="url(#sw-gradient)" d="M19.6,-31.9C25.4,-26.7,30.3,-21.4,33.7,-15.1C37,-8.8,38.9,-1.4,39,6.4C39.1,14.2,37.4,22.6,32.6,28.4C27.8,34.2,19.9,37.4,12.1,38.4C4.3,39.5,-3.3,38.4,-10.3,36C-17.3,33.5,-23.6,29.7,-29.8,24.7C-36.1,19.6,-42.2,13.3,-43.3,6.2C-44.4,-0.9,-40.4,-8.8,-35.9,-15.5C-31.4,-22.1,-26.3,-27.6,-20.3,-32.8C-14.2,-37.9,-7.1,-42.7,-0.1,-42.5C6.8,-42.3,13.7,-37.1,19.6,-31.9Z" width="100%" height="100%" transform="translate(50 50)" stroke-width="0" style="transition: 0.3s;" stroke="url(#sw-gradient)"></path>
</svg>  -->


<!-- <svg id="sw-js-blob-svg" viewBox="0 0 100 100" xmlns="http://www.w3.org/2000/svg">
    <defs>
        <linearGradient id="sw-gradient" x1="0" x2="1" y1="1" y2="0">
            <stop id="stop1" stop-color="rgba(212.892, 214.461, 228.504, 1)" offset="0%"></stop>
            <stop id="stop2" stop-color="rgba(227.361, 231.971, 235.334, 1)" offset="100%"></stop>
        </linearGradient>
    </defs>
    <path fill="url(#sw-gradient)" d="M19.9,-28.3C26.3,-22.8,32.2,-17.6,33.9,-11.3C35.6,-4.9,33.1,2.5,30.1,9.1C27,15.7,23.4,21.5,18.3,27.5C13.2,33.5,6.6,39.7,0.1,39.6C-6.4,39.4,-12.7,32.8,-20.3,27.6C-27.9,22.4,-36.8,18.6,-40.5,12C-44.3,5.4,-43,-4.1,-38.8,-11.3C-34.6,-18.4,-27.6,-23.3,-20.6,-28.7C-13.7,-34,-6.8,-39.7,0,-39.7C6.8,-39.6,13.6,-33.9,19.9,-28.3Z" width="100%" height="100%" transform="translate(50 50)" stroke-width="0" style="transition: 0.3s;" stroke="url(#sw-gradient)"></path>
</svg> -->

<svg id="sw-js-blob-svg" viewBox="0 0 100 100"
    xmlns="http://www.w3.org/2000/svg">
    <defs>
        <linearGradient id="sw-gradient" x1="0" x2="1" y1="1" y2="0">
            <stop id="stop1" stop-color="rgba(212.892, 214.461, 228.504, 1)" offset="0%"></stop>
            <stop id="stop2" stop-color="rgba(227.361, 231.971, 235.334, 1)" offset="100%"></stop>
        </linearGradient>
    </defs>
    <path fill="url(#sw-gradient)" d="M24.9,-33.3C32,-29.1,37.2,-21.4,38.8,-13.4C40.4,-5.3,38.4,3.3,34.9,10.6C31.5,17.9,26.7,24,20.6,28.1C14.6,32.2,7.3,34.3,-0.7,35.3C-8.7,36.3,-17.4,36,-23.3,31.9C-29.2,27.7,-32.3,19.6,-34.2,11.6C-36.1,3.6,-36.7,-4.2,-35.1,-12.2C-33.6,-20.1,-29.9,-28.1,-23.7,-32.6C-17.5,-37.1,-8.7,-38.1,0.1,-38.2C8.9,-38.3,17.8,-37.5,24.9,-33.3Z" width="100%" height="100%" transform="translate(50 50)" stroke-width="0" style="transition: 0.3s;" stroke="url(#sw-gradient)"></path>
</svg>

